<svg xmlns="http://www.w3.org/2000/svg" viewBox="0 0 292.05 342.88" fill="#f7f7f7"><path d="M495.37,294.28c-29.39-60.9-95.19-91.7-158.2-80.5L354,182.28a14.42,14.42,0,1,0-25.21-14L294.48,232s-7.7,12.61,4.19,18.2l63.7,34.3a13.55,13.55,0,0,0,7,2.11c4.9,0,10.5-2.8,12.61-7.7a14,14,0,0,0-5.61-19.61l-32.89-18.19a117.45,117.45,0,0,1,124.6,64.39c28,58.11,3.5,128.1-54.61,155.4-28,13.3-59.5,15.4-88.89,4.9s-53.2-31.5-66.5-59.5-15.4-59.5-4.9-88.9a14.82,14.82,0,0,0-9.1-18.89,16.6,16.6,0,0,0-18.2,10.5c-12.61,37.1-10.51,76.3,6.29,111.3a146.57,146.57,0,0,0,131.61,83.3,141.15,141.15,0,0,0,63-14.7c72.79-35,103.6-122.5,68.59-194.6Z" transform="translate(-217.77 -160.7)"/></svg>