<?xml version="1.0" encoding="utf-8"?>
<!-- Generator: Adobe Illustrator 24.1.1, SVG Export Plug-In . SVG Version: 6.00 Build 0)  -->
<svg version="1.1" id="Layer_1" xmlns="http://www.w3.org/2000/svg" xmlns:xlink="http://www.w3.org/1999/xlink" x="0px" y="0px"
	 viewBox="0 0 512 512" style="enable-background:new 0 0 512 512;" xml:space="preserve" fill="#fff">
<g>
	<path d="M451.76,123.59l10.64-34.9c4.11-13.39,18.27-20.91,31.66-16.83c13.39,4.08,20.91,18.27,16.83,31.66l-29.65,96.95
		c-4.08,13.37-18.24,20.91-31.63,16.83l-96.95-29.65c-13.46-3.81-21.31-17.8-17.52-31.28c3.79-13.46,17.8-21.31,31.26-17.52
		l1.09,0.35l42.37,12.94C353,65.87,236.97,42.06,150.72,98.91c-31.41,20.72-55.86,50.42-70.12,85.24l-6.61,16.06
		c-4.95,13.07-19.58,19.68-32.67,14.73s-19.68-19.58-14.73-32.67l0.52-1.29l6.58-16.04C83.5,43.45,222.37-14.67,343.87,35.13
		C387.88,53.15,425.45,83.96,451.76,123.59z M58.35,392.58l-8.27,33.22c-3.09,13.66-16.63,22.25-30.29,19.16
		c-13.66-3.07-22.25-16.63-19.16-30.27l0.27-1.14l24.5-98.36c3.37-13.59,17.1-21.88,30.69-18.51l1.39,0.37l97.02,24.18
		c13.56,3.39,21.83,17.15,18.46,30.74c-3.39,13.59-17.15,21.85-30.74,18.46l-45.27-11.29c56.53,86.53,172.49,110.86,259.01,54.33
		c36.04-23.54,62.84-58.76,75.93-99.74c4.26-13.34,18.51-20.69,31.85-16.46c13.34,4.26,20.72,18.54,16.46,31.88
		c-21.36,67-71.28,121.1-136.35,147.79C240.69,519.18,122.01,484.13,58.35,392.58z"/>
</g>
</svg>
